<svg width="19" height="17" viewBox="0 0 19 17" fill="none" xmlns="http://www.w3.org/2000/svg">
<path d="M17.8125 7.1266L3.72877 7.1266L8.03939 1.94911C8.1392 1.82903 8.21437 1.69047 8.26063 1.54134C8.30688 1.39221 8.32331 1.23543 8.30898 1.07995C8.28003 0.765944 8.12752 0.4763 7.88502 0.274735C7.64251 0.0731705 7.32986 -0.0238019 7.01586 0.00515035C6.70185 0.0341007 6.41221 0.186604 6.21064 0.429112L0.273152 7.5541C0.233206 7.61077 0.197484 7.67031 0.166277 7.73223C0.166277 7.7916 0.106903 7.82723 0.0831521 7.8866C0.0293265 8.02276 0.0011443 8.16769 2.75736e-05 8.3141C0.0011443 8.46051 0.0293265 8.60544 0.0831521 8.7416C0.0831521 8.80097 0.142526 8.8366 0.166277 8.89597C0.197484 8.95789 0.233206 9.01743 0.273152 9.0741L6.21064 16.1991C6.3223 16.3331 6.46211 16.4409 6.62015 16.5148C6.77819 16.5887 6.95056 16.6269 7.12502 16.6266C7.40248 16.6271 7.67137 16.5305 7.88502 16.3535C8.00526 16.2538 8.10466 16.1313 8.17751 15.9932C8.25037 15.855 8.29525 15.7038 8.30959 15.5483C8.32393 15.3928 8.30745 15.2359 8.26108 15.0868C8.21472 14.9376 8.13938 14.7991 8.03939 14.6791L3.72877 9.5016L17.8125 9.5016C18.1274 9.5016 18.4295 9.37649 18.6522 9.15379C18.8749 8.93109 19 8.62904 19 8.3141C19 7.99916 18.8749 7.69711 18.6522 7.47441C18.4295 7.25171 18.1274 7.1266 17.8125 7.1266Z" fill="#231F20"/>
</svg>
