<svg width="10" height="15" viewBox="0 0 10 15" fill="none" xmlns="http://www.w3.org/2000/svg">
<path d="M4.99999 0C2.23571 0 0 2.32825 0 5.20696C0 9.11217 4.99999 14.877 4.99999 14.877C4.99999 14.877 9.99998 9.11217 9.99998 5.20696C9.99998 2.32825 7.76427 0 4.99999 0ZM1.42857 5.20696C1.42857 3.15393 3.02857 1.4877 4.99999 1.4877C6.97142 1.4877 8.57142 3.15393 8.57142 5.20696C8.57142 7.34925 6.51428 10.5552 4.99999 12.5562C3.51428 10.5701 1.42857 7.32693 1.42857 5.20696Z" fill="#A2AEBC"/>
<path d="M5.00002 7.06666C5.98624 7.06666 6.78573 6.23407 6.78573 5.20703C6.78573 4.17999 5.98624 3.3474 5.00002 3.3474C4.01379 3.3474 3.2143 4.17999 3.2143 5.20703C3.2143 6.23407 4.01379 7.06666 5.00002 7.06666Z" fill="#A2AEBC"/>
</svg>
