<svg width="12" height="10" viewBox="0 0 12 10" fill="none" xmlns="http://www.w3.org/2000/svg">
<path d="M3.6 7.8H4.8V7.2H5.4C5.73 7.2 6 6.93 6 6.6V4.8C6 4.47 5.73 4.2 5.4 4.2H3.6V3.6H6V2.4H4.8V1.8H3.6V2.4H3C2.67 2.4 2.4 2.67 2.4 3V4.8C2.4 5.13 2.67 5.4 3 5.4H4.8V6H2.4V7.2H3.6V7.8ZM10.8 0H1.2C0.534 0 0.00599999 0.534 0.00599999 1.2L0 8.4C0 9.066 0.534 9.6 1.2 9.6H10.8C11.466 9.6 12 9.066 12 8.4V1.2C12 0.534 11.466 0 10.8 0ZM10.8 8.4H1.2V1.2H10.8V8.4ZM7.2 3.6L8.4 2.4L9.6 3.6M9.6 6.15L8.4 7.35L7.2 6.15" fill="#A2AEBC"/>
</svg>
