<svg width="46" height="46" viewBox="0 0 46 46" fill="none" xmlns="http://www.w3.org/2000/svg">
<circle cx="23" cy="23" r="23" fill="#FF4C4C"/>
<path d="M22.2 31.4C24.0196 31.4 25.7983 30.8604 27.3112 29.8495C28.8242 28.8386 30.0034 27.4018 30.6997 25.7207C31.396 24.0396 31.5782 22.1898 31.2232 20.4052C30.8682 18.6205 29.992 16.9813 28.7054 15.6946C27.4187 14.408 25.7795 13.5318 23.9948 13.1768C22.2102 12.8218 20.3604 13.004 18.6793 13.7003C16.9982 14.3966 15.5614 15.5758 14.5505 17.0888C13.5396 18.6017 13 20.3804 13 22.2C13 24.64 13.9693 26.98 15.6946 28.7054C17.42 30.4307 19.76 31.4 22.2 31.4Z" fill="white"/>
<path d="M22.5932 23.731L34.0001 36.4999" stroke="white" stroke-width="4"/>
</svg>
