<svg width="12" height="10" viewBox="0 0 12 10" fill="none" xmlns="http://www.w3.org/2000/svg">
<path d="M10.8 2.49933H8.99997V1.24967C8.99997 0.56235 8.45997 0 7.79997 0H4.19998C3.53999 0 2.99999 0.56235 2.99999 1.24967V2.49933H1.2C0.539998 2.49933 0 3.06168 0 3.749V9.99734H12V3.749C12 3.06168 11.46 2.49933 10.8 2.49933ZM4.19998 1.24967H7.79997V2.49933H4.19998V1.24967ZM10.8 8.74767H1.2V6.87317H2.39999V7.498H3.59999V6.87317H8.39997V7.498H9.59996V6.87317H10.8V8.74767ZM9.59996 5.6235V4.99867H8.39997V5.6235H3.59999V4.99867H2.39999V5.6235H1.2V3.749H2.99999H8.99997H10.8V5.6235H9.59996Z" fill="#A2AEBC"/>
</svg>
