<svg width="20" height="29" viewBox="0 0 20 29" fill="none" xmlns="http://www.w3.org/2000/svg">
<path d="M17.0588 9.46003C16.8588 9.46003 16.6588 9.48368 16.4706 9.51916V5.32127C16.4706 3.68941 15.1529 2.36501 13.5294 2.36501C13.3059 2.36501 13.0941 2.38866 12.8941 2.43596C12.6471 1.05243 11.4471 0 10 0C8.75295 0 7.69412 0.780453 7.25883 1.88018C7.01177 1.80923 6.74118 1.77376 6.47059 1.77376C4.84706 1.77376 3.52941 3.09816 3.52941 4.73002V5.38039C3.34118 5.34492 3.14118 5.32127 2.94118 5.32127C1.31765 5.32127 0 6.64567 0 8.27753V18.3288C0 23.8748 4.48236 28.3801 10 28.3801C15.5177 28.3801 20 23.8748 20 18.3288V12.4163C20 10.7844 18.6824 9.46003 17.0588 9.46003ZM17.6471 18.3288C17.6471 22.574 14.2235 26.0151 10 26.0151C5.77647 26.0151 2.35294 22.574 2.35294 18.3288V8.27753C2.35294 7.94643 2.61177 7.68628 2.94118 7.68628C3.27059 7.68628 3.52941 7.94643 3.52941 8.27753V14.1901H5.88236V4.73002C5.88236 4.39892 6.14118 4.13876 6.47059 4.13876C6.8 4.13876 7.05883 4.39892 7.05883 4.73002V13.0075H9.41177V2.95626C9.41177 2.62516 9.67059 2.36501 10 2.36501C10.3294 2.36501 10.5882 2.62516 10.5882 2.95626V13.0075H12.9412V5.32127C12.9412 4.99017 13.2 4.73002 13.5294 4.73002C13.8588 4.73002 14.1177 4.99017 14.1177 5.32127V15.8692C12.0353 16.7797 10.5882 18.8609 10.5882 21.2851H12.9412C12.9412 19.3221 14.5177 17.7376 16.4706 17.7376V12.4163C16.4706 12.0852 16.7294 11.825 17.0588 11.825C17.3882 11.825 17.6471 12.0852 17.6471 12.4163V18.3288Z" fill="white"/>
</svg>
