<svg width="25" height="28" viewBox="0 0 25 28" fill="none" xmlns="http://www.w3.org/2000/svg">
<path d="M5.55556 19.5442H15.2778V22.3362H5.55556V19.5442ZM5.55556 13.9601H19.4445V16.7521H5.55556V13.9601ZM5.55556 8.37607H19.4445V11.1681H5.55556V8.37607ZM22.2222 2.79202H16.4167C15.8333 1.17265 14.3056 0 12.5 0C10.6944 0 9.16667 1.17265 8.58334 2.79202H2.77778C2.58333 2.79202 2.40278 2.80598 2.22222 2.84786C1.68056 2.95955 1.19445 3.23875 0.819445 3.61567C0.569445 3.86695 0.361111 4.17408 0.222222 4.50912C0.0833335 4.8302 0 5.19317 0 5.58405V25.1282C0 25.5051 0.0833335 25.8821 0.222222 26.2171C0.361111 26.5522 0.569445 26.8453 0.819445 27.1106C1.19445 27.4875 1.68056 27.7667 2.22222 27.8784C2.40278 27.9063 2.58333 27.9202 2.77778 27.9202H22.2222C23.75 27.9202 25 26.6638 25 25.1282V5.58405C25 4.04844 23.75 2.79202 22.2222 2.79202ZM12.5 2.44302C13.0695 2.44302 13.5417 2.91767 13.5417 3.49003C13.5417 4.0624 13.0695 4.53704 12.5 4.53704C11.9306 4.53704 11.4583 4.0624 11.4583 3.49003C11.4583 2.91767 11.9306 2.44302 12.5 2.44302ZM22.2222 25.1282H2.77778V5.58405H22.2222V25.1282Z" fill="white"/>
</svg>
