<svg width="12" height="12" viewBox="0 0 12 12" fill="none" xmlns="http://www.w3.org/2000/svg">
<path d="M10.3708 2.3999H1.15234V3.5999H10.3708V2.3999Z" fill="#A2AEBC"/>
<path d="M9.21838 0H2.30457V1.2H9.21838V0Z" fill="#A2AEBC"/>
<path d="M0 4.7998V5.9998H1.1523V10.7998C1.15274 11.1179 1.27429 11.4229 1.49029 11.6478C1.70629 11.8728 1.99913 11.9993 2.30461 11.9998H9.21842C9.52411 11.9994 9.81719 11.8729 10.0335 11.648C10.2499 11.4231 10.3718 11.1181 10.3728 10.7998L10.3707 5.9998H11.523V4.7998H0ZM9.21842 10.7998H2.30461V5.9998H9.21842V10.7998Z" fill="#A2AEBC"/>
<path d="M5.76151 9H3.45691V10.2H5.76151V9Z" fill="#A2AEBC"/>
</svg>
