<svg width="46" height="49" viewBox="0 0 46 49" fill="none" xmlns="http://www.w3.org/2000/svg">
<circle cx="23" cy="26" r="23" fill="#FF4C4C"/>
<path d="M40.8388 12.2992C39.746 13.0092 38.4598 13.3889 37.1429 13.3889C35.3766 13.3889 33.6854 12.7066 32.4406 11.4964C31.1963 10.2867 30.5 8.649 30.5 6.94445C30.5 5.67305 30.8877 4.42899 31.6159 3.36952C32.3441 2.30988 33.3807 1.4819 34.5962 0.992422C35.8117 0.502903 37.1501 0.374618 38.4414 0.624343C39.7327 0.874057 40.9169 1.4901 41.8451 2.39248C42.7731 3.29471 43.4034 4.44249 43.6586 5.68988C43.9138 6.93716 43.783 8.23016 43.282 9.40599C42.781 10.582 41.9315 11.5894 40.8388 12.2992Z" fill="white" stroke="black"/>
<path d="M23 42.338C24.655 42.338 26.009 40.984 26.009 39.329H19.991C19.991 40.984 21.345 42.338 23 42.338ZM32.0271 33.3109V25.7884C32.0271 21.1695 29.5747 17.3029 25.2568 16.2798V15.2568C25.2568 14.008 24.2487 13 23 13C21.7513 13 20.7432 14.008 20.7432 15.2568V16.2798C16.4403 17.3029 13.9729 21.1545 13.9729 25.7884V33.3109L10.9639 36.32V37.8245H35.0361V36.32L32.0271 33.3109ZM29.0181 34.8154H16.9819V25.7884C16.9819 22.0572 19.2538 19.0181 23 19.0181C26.7462 19.0181 29.0181 22.0572 29.0181 25.7884V34.8154ZM16.3501 15.3771L14.1986 13.2257C10.5878 15.9789 8.21063 20.2217 8 25.0361H11.009C11.2347 21.0491 13.2808 17.5587 16.3501 15.3771ZM34.991 25.0361H38C37.7743 20.2217 35.3972 15.9789 31.8014 13.2257L29.665 15.3771C32.7041 17.5587 34.7653 21.0491 34.991 25.0361Z" fill="white"/>
</svg>
