<svg width="46" height="46" viewBox="0 0 46 46" fill="none" xmlns="http://www.w3.org/2000/svg">
<circle cx="23" cy="23" r="23" fill="#FF4C4C"/>
<path d="M23.0001 19.6778C24.2998 19.6778 25.5704 19.3031 26.651 18.6011C27.7317 17.8991 28.574 16.9013 29.0714 15.7338C29.5687 14.5664 29.6989 13.2818 29.4453 12.0425C29.1917 10.8032 28.5659 9.66479 27.6468 8.77129C26.7278 7.87779 25.5569 7.2693 24.2822 7.02279C23.0074 6.77627 21.6861 6.90279 20.4854 7.38635C19.2846 7.86991 18.2583 8.68879 17.5362 9.73944C16.8141 10.7901 16.4287 12.0253 16.4287 13.2889C16.4287 14.9834 17.1211 16.6084 18.3534 17.8065C19.5858 19.0047 21.2573 19.6778 23.0001 19.6778Z" fill="white"/>
<path d="M32.8571 35.6501C33.2929 35.6501 33.7107 35.4818 34.0188 35.1823C34.3269 34.8827 34.5 34.4765 34.5 34.0529C34.5 31.0876 33.2884 28.2438 31.1317 26.147C28.9751 24.0503 26.05 22.8723 23 22.8723C19.95 22.8723 17.0249 24.0503 14.8683 26.147C12.7116 28.2438 11.5 31.0876 11.5 34.0529C11.5 34.4765 11.6731 34.8827 11.9812 35.1823C12.2893 35.4818 12.7071 35.6501 13.1429 35.6501H32.8571Z" fill="white"/>
</svg>
