<svg width="28" height="28" viewBox="0 0 28 28" fill="none" xmlns="http://www.w3.org/2000/svg">
<path d="M22.75 7.84L15.05 3.388C14.406 3.01 13.594 3.01 12.95 3.388L5.25 7.84C4.606 8.218 4.2 8.904 4.2 9.66V18.55C4.2 19.306 4.606 19.992 5.25 20.37L12.95 24.822C13.594 25.2 14.406 25.2 15.05 24.822L22.75 20.37C23.394 19.992 23.8 19.306 23.8 18.55V9.66C23.8 8.904 23.394 8.218 22.75 7.84ZM7 18.144V11.676L12.6 14.924V21.378L7 18.144ZM14 12.502L8.4 9.254L14 6.02L19.6 9.254L14 12.502ZM15.4 21.378V14.924L21 11.676V18.144L15.4 21.378ZM7 0H2.1C0.938 0 0 0.938 0 2.1V7H2.8V2.8H7V0ZM21 0H25.9C27.062 0 28 0.938 28 2.1V7H25.2V2.8H21V0ZM7 28H2.1C0.938 28 0 27.062 0 25.9V21H2.8V25.2H7V28ZM21 28H25.9C27.062 28 28 27.062 28 25.9V21H25.2V25.2H21V28Z" fill="#FF4C4C"/>
</svg>
