<svg width="12" height="12" viewBox="0 0 12 12" fill="none" xmlns="http://www.w3.org/2000/svg">
<path d="M10.8 0H1.2C0.88174 0 0.576516 0.126428 0.351472 0.351472C0.126428 0.576516 0 0.88174 0 1.2V10.8C0 10.9576 0.0310389 11.1136 0.0913445 11.2592C0.15165 11.4048 0.240042 11.5371 0.351472 11.6485C0.462902 11.76 0.595189 11.8484 0.74078 11.9087C0.886371 11.969 1.04241 12 1.2 12H10.8C10.9576 12 11.1136 11.969 11.2592 11.9087C11.4048 11.8484 11.5371 11.76 11.6485 11.6485C11.76 11.5371 11.8484 11.4048 11.9087 11.2592C11.969 11.1136 12 10.9576 12 10.8V1.2C12 1.04241 11.969 0.886371 11.9087 0.74078C11.8484 0.595189 11.76 0.462902 11.6485 0.351472C11.5371 0.240042 11.4048 0.15165 11.2592 0.0913445C11.1136 0.0310389 10.9576 0 10.8 0ZM10.6667 10.6667H1.33333V1.33333H10.6667V10.6667Z" fill="#ADB8C4"/>
<path d="M6.00004 8.66659C7.4728 8.66659 8.66671 7.47268 8.66671 5.99992C8.66671 4.52716 7.4728 3.33325 6.00004 3.33325C4.52728 3.33325 3.33337 4.52716 3.33337 5.99992C3.33337 7.47268 4.52728 8.66659 6.00004 8.66659Z" fill="#ADB8C4"/>
</svg>
