<svg width="19" height="17" viewBox="0 0 19 17" fill="none" xmlns="http://www.w3.org/2000/svg">
<path d="M1.1875 9.49999H15.2712L10.9606 14.6775C10.8608 14.7976 10.7856 14.9361 10.7394 15.0852C10.6931 15.2344 10.6767 15.3912 10.691 15.5466C10.72 15.8606 10.8725 16.1503 11.115 16.3519C11.3575 16.5534 11.6701 16.6504 11.9841 16.6214C12.2981 16.5925 12.5878 16.44 12.7894 16.1975L18.7268 9.07249C18.7668 9.01582 18.8025 8.95628 18.8337 8.89436C18.8337 8.83499 18.8931 8.79936 18.9168 8.73999C18.9707 8.60383 18.9989 8.4589 19 8.31249C18.9989 8.16609 18.9707 8.02115 18.9168 7.88499C18.9168 7.82562 18.8575 7.78999 18.8337 7.73062C18.8025 7.6687 18.7668 7.60916 18.7268 7.55249L12.7894 0.427502C12.6777 0.293454 12.5379 0.185653 12.3799 0.111765C12.2218 0.0378777 12.0494 -0.000281047 11.875 2.26855e-06C11.5975 -0.00053984 11.3286 0.0960933 11.115 0.273127C10.9947 0.372816 10.8953 0.495248 10.8225 0.63341C10.7496 0.771572 10.7048 0.92275 10.6904 1.07828C10.6761 1.23382 10.6926 1.39066 10.7389 1.53981C10.7853 1.68896 10.8606 1.8275 10.9606 1.9475L15.2712 7.12499H1.1875C0.872554 7.12499 0.57051 7.2501 0.34781 7.4728C0.125111 7.6955 0 7.99755 0 8.31249C0 8.62744 0.125111 8.92948 0.34781 9.15218C0.57051 9.37488 0.872554 9.49999 1.1875 9.49999Z" fill="#231F20"/>
</svg>
