<svg width="20" height="20" viewBox="0 0 20 20" fill="none" xmlns="http://www.w3.org/2000/svg">
<path d="M15.4762 0H2.21088C0.983844 0 0 1 0 2.22222V17.7778C0 19 0.983844 20 2.21088 20H17.6871C18.9031 20 19.898 19 19.898 17.7778V4.44444L15.4762 0ZM9.94898 17.7778C8.11395 17.7778 6.63265 16.2889 6.63265 14.4444C6.63265 12.6 8.11395 11.1111 9.94898 11.1111C11.784 11.1111 13.2653 12.6 13.2653 14.4444C13.2653 16.2889 11.784 17.7778 9.94898 17.7778ZM13.2653 6.66667H2.21088V2.22222H13.2653V6.66667Z" fill="white"/>
</svg>
