<svg width="39" height="28" viewBox="0 0 39 28" fill="none" xmlns="http://www.w3.org/2000/svg">
<path d="M33.25 7H28V0H3.5C1.575 0 0 1.575 0 3.5V22.75H3.5C3.5 25.655 5.845 28 8.75 28C11.655 28 14 25.655 14 22.75H24.5C24.5 25.655 26.845 28 29.75 28C32.655 28 35 25.655 35 22.75H38.5V14L33.25 7ZM32.375 9.625L35.805 14H28V9.625H32.375ZM8.75 24.5C7.7875 24.5 7 23.7125 7 22.75C7 21.7875 7.7875 21 8.75 21C9.7125 21 10.5 21.7875 10.5 22.75C10.5 23.7125 9.7125 24.5 8.75 24.5ZM12.635 19.25C11.6725 18.1825 10.3075 17.5 8.75 17.5C7.1925 17.5 5.8275 18.1825 4.865 19.25H3.5V3.5H24.5V19.25H12.635ZM29.75 24.5C28.7875 24.5 28 23.7125 28 22.75C28 21.7875 28.7875 21 29.75 21C30.7125 21 31.5 21.7875 31.5 22.75C31.5 23.7125 30.7125 24.5 29.75 24.5Z" fill="#A2AEBC"/>
</svg>
