<svg width="23" height="26" viewBox="0 0 23 26" fill="none" xmlns="http://www.w3.org/2000/svg">
<path d="M19.1667 10.2746L17.365 8.45089L8.94444 16.9146L5.635 13.6011L3.83333 15.412L8.94444 20.5493L19.1667 10.2746ZM20.4444 2.56866H15.1033C14.5667 1.07884 13.1611 0 11.5 0C9.83889 0 8.43333 1.07884 7.89666 2.56866H2.55555C2.37667 2.56866 2.21055 2.5815 2.04444 2.62003C1.54611 2.72278 1.09889 2.97965 0.753889 3.32642C0.523889 3.55759 0.332222 3.84015 0.204444 4.14839C0.0766667 4.44378 0 4.77771 0 5.13732V23.1179C0 23.4647 0.0766667 23.8115 0.204444 24.1197C0.332222 24.428 0.523889 24.6977 0.753889 24.9417C1.09889 25.2885 1.54611 25.5453 2.04444 25.6481C2.21055 25.6738 2.37667 25.6866 2.55555 25.6866H20.4444C21.85 25.6866 23 24.5307 23 23.1179V5.13732C23 3.72456 21.85 2.56866 20.4444 2.56866ZM11.5 2.24758C12.0239 2.24758 12.4583 2.68425 12.4583 3.21083C12.4583 3.7374 12.0239 4.17407 11.5 4.17407C10.9761 4.17407 10.5417 3.7374 10.5417 3.21083C10.5417 2.68425 10.9761 2.24758 11.5 2.24758ZM20.4444 23.1179H2.55555V5.13732H20.4444V23.1179Z" fill="white"/>
</svg>
